<svg id="Layer_1" data-name="Layer 1" xmlns="http://www.w3.org/2000/svg" viewBox="0 0 300 300"><title>CFA_Under FIre_Logo</title><path d="M155.09,72.85,132.68,49a100.65,100.65,0,0,0-13.41,3.25l33.89,36.05Z" fill="#008ce4"/><path d="M151.86,98.75,111,55.3a100.92,100.92,0,0,0-11.26,5.54l50.18,53.39Z" fill="#008ce4"/><path d="M148.67,124.39l-56.11-59A101.84,101.84,0,0,0,83,72.77l63.7,67Z" fill="#008ce4"/><path d="M212.58,105.22l4.27-32.43a100.65,100.65,0,0,0-11-8.32l-6.46,49.06Z" fill="#5d76ca"/><path d="M190.49,119.12,198.27,60a100.92,100.92,0,0,0-11.42-5.21l-9.56,72.65Z" fill="#5d76ca"/><path d="M168.62,132.88l10.18-80.8A101.84,101.84,0,0,0,167,49.4l-11.56,91.74Z" fill="#5d76ca"/><path d="M223,170.49l28.14-16.69a100.65,100.65,0,0,0-.26-13.8L208.3,165.25Z" fill="#039765"/><path d="M198.39,161.71l51.3-30.42a100.92,100.92,0,0,0-3-12.2l-63,37.37Z" fill="#039765"/><path d="M174.06,153l69.82-41.93a101.84,101.84,0,0,0-5.16-10.9l-79.28,47.6Z" fill="#039765"/><path d="M178.22,219.8l30.56,11.67a100.65,100.65,0,0,0,10.65-8.78L173.2,205Z" fill="#038dd5"/><path d="M169.81,195.09l55.72,21.27a100.92,100.92,0,0,0,7.72-9.9L164.8,180.32Z" fill="#038dd5"/><path d="M161.5,170.62l76.24,28.63a101.84,101.84,0,0,0,5.33-10.82l-86.57-32.5Z" fill="#038dd5"/><path d="M111.09,214.55l9.36,31.35a100.65,100.65,0,0,0,13.45,3.1l-14.15-47.41Z" fill="#039765"/><path d="M125.58,192.84,142.63,250a100.92,100.92,0,0,0,12.55.09l-21-70.21Z" fill="#039765"/><path d="M139.92,171.34l23.72,77.91a101.84,101.84,0,0,0,11.83-2.36l-26.93-88.46Z" fill="#039765"/><path d="M74.18,159.85,55.84,186.94A100.65,100.65,0,0,0,62,199.31l27.74-41Z" fill="#5d76ca"/><path d="M100.16,157.32,66.72,206.7a100.92,100.92,0,0,0,7.87,9.78l41.09-60.67Z" fill="#5d76ca"/><path d="M125.88,154.82,80.59,222.5a101.84,101.84,0,0,0,9.31,7.66l51.43-76.85Z" fill="#5d76ca"/><path d="M94.06,97.22,61.45,99.74a100.65,100.65,0,0,0-5.87,12.49l49.33-3.82Z" fill="#039765"/><path d="M112.23,116l-59.46,4.61A100.92,100.92,0,0,0,50,132.82l73.05-5.66Z" fill="#039765"/><path d="M130.21,134.52,49,141.25a101.84,101.84,0,0,0-.19,12.06L141,145.66Z" fill="#039765"/></svg>