<svg id="Layer_1" data-name="Layer 1" xmlns="http://www.w3.org/2000/svg" viewBox="0 0 300 300"><title>CFA_Under FIre</title><path d="M155.09,72.85,132.68,49a100.65,100.65,0,0,0-13.41,3.25l33.89,36.05Z" fill="#008ce4"/><path d="M151.86,98.75,111,55.3a100.92,100.92,0,0,0-11.26,5.54l50.18,53.39Z" fill="#008ce4"/><path d="M148.67,124.39l-56.11-59A101.84,101.84,0,0,0,83,72.77l63.7,67Z" fill="#008ce4"/><path d="M212.58,105.22l4.27-32.43a100.65,100.65,0,0,0-11-8.32l-6.46,49.06Z" fill="#5d76ca"/><path d="M190.49,119.12,198.27,60a100.92,100.92,0,0,0-11.42-5.21l-9.56,72.65Z" fill="#5d76ca"/><path d="M168.62,132.88l10.18-80.8A101.84,101.84,0,0,0,167,49.4l-11.56,91.74Z" fill="#5d76ca"/><path d="M223,170.49l28.14-16.69a100.65,100.65,0,0,0-.26-13.8L208.3,165.25Z" fill="#039765"/><path d="M198.39,161.71l51.3-30.42a100.92,100.92,0,0,0-3-12.2l-63,37.37Z" fill="#039765"/><path d="M174.06,153l69.82-41.93a101.84,101.84,0,0,0-5.16-10.9l-79.28,47.6Z" fill="#039765"/><path d="M178.22,219.8l30.56,11.67a100.65,100.65,0,0,0,10.65-8.78L173.2,205Z" fill="#038dd5"/><path d="M169.81,195.09l55.72,21.27a100.92,100.92,0,0,0,7.72-9.9L164.8,180.32Z" fill="#038dd5"/><path d="M161.5,170.62l76.24,28.63a101.84,101.84,0,0,0,5.33-10.82l-86.57-32.5Z" fill="#038dd5"/><path d="M111.09,214.55l9.36,31.35a100.65,100.65,0,0,0,13.45,3.1l-14.15-47.41Z" fill="#039765"/><path d="M125.58,192.84,142.63,250a100.92,100.92,0,0,0,12.55.09l-21-70.21Z" fill="#039765"/><path d="M139.92,171.34l23.72,77.91a101.84,101.84,0,0,0,11.83-2.36l-26.93-88.46Z" fill="#039765"/><path d="M74.18,159.85,55.84,186.94A100.65,100.65,0,0,0,62,199.31l27.74-41Z" fill="#5d76ca"/><path d="M100.16,157.32,66.72,206.7a100.92,100.92,0,0,0,7.87,9.78l41.09-60.67Z" fill="#5d76ca"/><path d="M125.88,154.82,80.59,222.5a101.84,101.84,0,0,0,9.31,7.66l51.43-76.85Z" fill="#5d76ca"/><path d="M94.06,97.22,61.45,99.74a100.65,100.65,0,0,0-5.87,12.49l49.33-3.82Z" fill="#039765"/><path d="M112.23,116l-59.46,4.61A100.92,100.92,0,0,0,50,132.82l73.05-5.66Z" fill="#039765"/><path d="M130.21,134.52,49,141.25a101.84,101.84,0,0,0-.19,12.06L141,145.66Z" fill="#039765"/><path d="M179,170.24c-.41,4.61-1,9.37-1.72,13.87C179.22,180.15,179.44,175.75,179,170.24Z" fill="#f2902c"/><path d="M208.57,196.72c-.88-12.16-7.57-12.59-7.91-24.49-.26-9.06,2.81-10.88,1.51-19.59-1.57-10.46-7-15.18-2-18.64,8.33-5.82,3.83-12.29,3.83-12.29s-12.53,18.72-22.39,11.22c-5.67-4.32-7.63-10-4.76-20.76,3.2-12,4.67-12.58,4.67-12.58s-9.86,3.23-10.62,11.92c-1.48,16.81,2.95,13-1.48,19.27-4.61,6.48-18.49,7-22.23,1.88-4.17-5.68,4.12-18.5,3.39-18.84s-9.33,19.44-13.19,18.46c-2-.5,1.68-7.22-2.26-13.19-13.63-20.64-14.32-35-14.32-35s-6.85,9.65-5.28,18.09c2.22,11.88,13.34,14.15,13.57,24.49.14,6.38-3.93,13-7.54,13.19-5.67.25-12.81-15.07-12.81-15.07s-6.22,10.16-4.9,19.59c1.8,12.81,10.23,15.26,9.8,26.38-.06,1.47-.39,10-6,13.94-4.69,3.24-8.34,0-15.07,3.77-4.71,2.64-5.61,5.73-9.42,6-3.28.26-8.44-7.13-10.24-8.76a28.73,28.73,0,0,0-.92,6.95,22.72,22.72,0,0,0,3.61,1.91c6.37,2.63,9.24,5.41,14.34,10.34,3,2.91,4.29,6.68,5,10.42a34.59,34.59,0,0,0,5.71-15.8s10.56,4,8.07,23.75,2.79-21.58,9.63-28.72S122,157.65,122,157.65s12.15,8.33,13.84,18c.41,2.36.94,5.71,1.5,9.42,3.49-4.64,7-8,7-14,0-11.17,10.77-29,9.3-23-1.86,7.65-2.41,17.71-1.93,26.48,2.76-7.12,6.45-13.78,7.91-13.43,2.39.56.89,8,4.72,9.84,4.05,2,11-27.34,13.77-25.78,1.45.8,1.85,8.39,1.37,17.94,1.66,1.55,4.81,8.37,6.93,16.49,2.08-2.13,4.31-4.79,4.52-7.53a36.36,36.36,0,0,0-.79-11c0-14.2,3.47,9.17,3.94,20.86.61,15.23-3.77,29.7-5.51,29.52-.39,0-1.08-.78-1.88-2-1.28,6.51-2.74,12.5-3,20.72,0,.32,0,.63,0,.94a87.47,87.47,0,0,0,3.66,12.56,101.55,101.55,0,0,0,48.52-41.19,35.71,35.71,0,0,0,2.26-6.59S210.4,222,208.57,196.72Zm-70.31-22.25c-2.29.38-6-10.51-7.48-18.5-.79-4.18-1.47-7.79-.39-8.27,1.71-.76,8,6.35,9.45,15C140.7,167.82,139.94,174.19,138.25,174.47Z" fill="#f2902c"/><path d="M130.38,147.7c-1.08.48-.39,4.09.39,8.27,1.51,8,5.19,18.88,7.48,18.5,1.69-.28,2.44-6.65,1.57-11.81C138.38,154,132.09,146.94,130.38,147.7Z" fill="#efbc2e"/><path d="M158.1,168.74s8.22,6,10.52,19.47c.19,1.1.32,2.14.4,3.13a15.54,15.54,0,0,0,7-5.11,17.13,17.13,0,0,0,1.26-2.12c.74-4.49,1.32-9.26,1.72-13.87-.12-1.48-.3-3-.5-4.69-.33-2.65.13-3.27,1-2.45.48-9.55.08-17.14-1.37-17.94-2.82-1.56-9.72,27.76-13.77,25.78-3.84-1.87-2.34-9.28-4.72-9.84-1.46-.34-5.14,6.31-7.91,13.43a72.05,72.05,0,0,0,1.69,12.76C156.35,180.3,158.56,173.32,158.1,168.74Z" fill="#efbc2e"/><path d="M188.42,197a99,99,0,0,1-1.75,12.38c.8,1.25,1.49,2,1.88,2,1.74.18,6.12-14.29,5.51-29.52-.47-11.69-3.93-35.06-3.94-20.86a36.36,36.36,0,0,1,.79,11c-.21,2.73-2.44,5.4-4.52,7.53A56.12,56.12,0,0,1,188.42,197Z" fill="#efbc2e"/><path d="M185,244.53q1.18-.45,2.35-.92a87.47,87.47,0,0,1-3.66-12.56A53.05,53.05,0,0,0,185,244.53Z" fill="#efbc2e"/><path d="M89.88,204.9c-5.09-4.93-8-7.71-14.34-10.34a22.72,22.72,0,0,1-3.61-1.91c-14.56-9.36-21.56-35-21.56-35s-.74,1.77-1.61,4.49a101.47,101.47,0,0,0,36.11,65.7,14.64,14.64,0,0,1,1.74-2.31,69.9,69.9,0,0,0,8.22-10.22C94.17,211.58,92.88,207.81,89.88,204.9Z" fill="#efbc2e"/><path d="M95.53,221.1c-.16-1.83-.35-3.8-.7-5.78a69.9,69.9,0,0,1-8.22,10.22,14.64,14.64,0,0,0-1.74,2.31,101.68,101.68,0,0,0,9.36,6.86C95.22,229.37,96,226.92,95.53,221.1Z" fill="#d87f36"/><path d="M178.47,165.55c.2,1.65.38,3.21.5,4.69.22-2.45.38-4.86.5-7.15C178.61,162.28,178.15,162.9,178.47,165.55Z" fill="#d87f36"/><path d="M182.72,183.56c-3.41,9.72,1,21.25,4,25.83A99,99,0,0,0,188.42,197a56.12,56.12,0,0,0-2-17.42C184.64,181.38,183,182.8,182.72,183.56Z" fill="#d87f36"/><path d="M183.68,231.05c0-.32,0-.62,0-.94A94.91,94.91,0,0,1,186,213c.24-1.19.48-2.37.72-3.58-2.94-4.59-7.36-16.12-4-25.83.27-.76,1.92-2.18,3.68-4-2.11-8.12-5.27-14.94-6.93-16.49-.12,2.29-.28,4.7-.5,7.15.46,5.51.25,9.91-1.72,13.87a17.13,17.13,0,0,1-1.26,2.12,15.54,15.54,0,0,1-7,5.11c-.08-1-.21-2-.4-3.13-2.3-13.51-10.52-19.47-10.52-19.47.46,4.58-1.75,11.56-4.71,18.55a72.05,72.05,0,0,1-1.69-12.76c-.48-8.77.07-18.83,1.93-26.48,1.46-6-9.3,11.84-9.3,23,0,5.94-3.54,9.32-7,14-.56-3.71-1.08-7.05-1.5-9.42-1.69-9.63-13.84-18-13.84-18s3.1,29.75-3.73,36.89-12.11,48.44-9.63,28.72-8.07-23.75-8.07-23.75a34.59,34.59,0,0,1-5.71,15.8c.35,2,.53,3.95.7,5.78.52,5.82-.31,8.27-1.3,13.6A100.87,100.87,0,0,0,149.33,251a102.18,102.18,0,0,0,14.26-1,100.8,100.8,0,0,0,13.24-2.77Q181,246,185,244.53A53.05,53.05,0,0,1,183.68,231.05Z" fill="#d87f36"/><polygon points="162.93 83.43 163.37 83.02 163.03 82.66 162.93 83.43" fill="#efbc2e" opacity="0.5"/><polygon points="162.93 83.43 163.37 83.02 163.03 82.66 162.93 83.43" fill="#efbc2e" opacity="0.39"/><polygon points="162.93 83.43 163.37 83.02 163.03 82.66 162.93 83.43" fill="none"/><polygon points="162.93 83.43 163.37 83.02 163.03 82.66 162.93 83.43" fill="none"/></svg>